<?xml version="1.0" encoding="UTF-8" standalone="no"?>
<!DOCTYPE svg PUBLIC "-//W3C//DTD SVG 1.1//EN" "http://www.w3.org/Graphics/SVG/1.1/DTD/svg11.dtd">
<svg width="100%" height="100%" viewBox="0 0 1671 378" version="1.1" xmlns="http://www.w3.org/2000/svg" xmlns:xlink="http://www.w3.org/1999/xlink" xml:space="preserve" xmlns:serif="http://www.serif.com/" style="fill-rule:evenodd;clip-rule:evenodd;stroke-linejoin:round;stroke-miterlimit:2;">
    <g transform="matrix(0.154573,0,0,0.154573,-206.061,-338.83)">
        <path id="S" d="M3010.03,4138.91C2995.76,4176.62 2978.15,4213.49 2957.19,4249.53C2891.61,4362.23 2798.87,4446 2678.97,4500.82C2559.06,4555.64 2409.65,4583.04 2230.73,4583.04C1970.31,4583.04 1770.31,4517.21 1630.74,4385.55C1491.16,4253.88 1407.79,4062.02 1380.62,3809.96L1785.3,3766.92C1809.66,3915.49 1859.07,4024.62 1933.54,4094.29C2008.01,4163.97 2108.48,4198.81 2234.94,4198.81C2368.9,4198.81 2469.84,4167.81 2537.75,4105.82C2605.67,4043.83 2639.62,3971.34 2639.62,3888.34C2639.62,3835.06 2625.34,3789.72 2596.77,3752.32C2568.2,3714.92 2518.31,3682.39 2447.12,3654.73C2398.41,3636.28 2287.4,3603.49 2114.1,3556.36C1891.15,3495.91 1734.72,3421.62 1644.79,3333.5C1518.32,3209.52 1455.09,3058.39 1455.09,2880.1C1455.09,2765.35 1484.83,2658.01 1544.32,2558.11C1603.8,2458.21 1689.52,2382.13 1801.46,2329.88C1913.4,2277.62 2048.53,2251.49 2206.84,2251.49C2465.39,2251.49 2660,2313.48 2790.68,2437.46C2880.73,2522.9 2941.31,2628.04 2972.42,2752.9C2939.58,2811.47 2910.97,2873.77 2887.13,2939.15L2580.61,2953.88C2562.81,2838.09 2524.64,2754.84 2466.09,2704.12C2407.54,2653.4 2319.72,2628.04 2202.63,2628.04C2081.78,2628.04 1987.17,2655.2 1918.79,2709.5C1874.76,2744.34 1852.75,2790.96 1852.75,2849.37C1852.75,2902.65 1873.36,2948.24 1914.57,2986.15C1967.03,3034.31 2094.43,3084.52 2296.77,3136.77C2499.11,3189.03 2648.76,3243.08 2745.71,3298.92C2767.01,3311.19 2787.3,3324.45 2806.57,3338.7C2805.25,3363.79 2804.58,3389.1 2804.58,3414.61C2804.58,3687.28 2881.24,3938.56 3010.03,4138.91Z" style="fill:white;fill-rule:nonzero;"/>
        <g id="G">
            <path d="M4843.48,3560.97C4844.4,3562.73 4843.59,3559.89 4843.48,3560.97C4792.21,4095.95 4410.23,4599.38 3867.18,4599.38C3324.14,4599.38 2883.26,4068.5 2883.26,3414.61C2883.26,2760.71 3324.14,2229.83 3867.18,2229.83C4097.05,2229.83 4246.27,2325.87 4246.27,2325.89L4116.4,2650.79L4116.41,2650.79C4040.09,2614.84 3957.02,2595.09 3870.16,2595.09C3496.57,2595.09 3193.25,2960.32 3193.25,3410.18C3193.25,3860.04 3496.57,4225.27 3870.16,4225.27C4200.76,4225.27 4476.31,3939.3 4535.38,3561.69L4843.48,3560.97Z" style="fill:rgb(37,68,99);"/>
            <g transform="matrix(0.946341,0,0,0.821053,228.536,639.936)">
                <path d="M4877.27,3558.99L3663.31,3559.9L3663.31,3137.79L4548.25,3137.79L4877.27,3558.99Z" style="fill:rgb(62,114,165);"/>
            </g>
        </g>
        <g id="A">
            <path d="M5253.37,2252.23L5654.22,2250.22L5064.03,4576.73L4671.24,4580.76L5253.37,2252.23Z" style="fill:rgb(62,114,165);"/>
            <path d="M5654.22,2250.22L6215.28,4581.22L5817.45,4581.22L5446.5,3071.85L5654.22,2250.22Z" style="fill:rgb(37,68,99);"/>
        </g>
        <g id="M">
            <g transform="matrix(1,0,0,1,2750.42,-3.18137)">
                <path d="M5654.22,2250.22L6215.28,4581.22L5817.45,4581.22L5446.01,3071.68L5654.22,2250.22Z" style="fill:rgb(37,68,99);"/>
            </g>
            <g transform="matrix(1,0,0,1,1598.25,0.259618)">
                <path d="M5253.37,2252.23L5654.22,2250.22L5064.03,4576.73L4671.24,4580.76L5253.37,2252.23Z" style="fill:rgb(62,114,165);"/>
            </g>
            <g transform="matrix(1,0,0,1,2750.66,-3.26154)">
                <path d="M5253.37,2252.23L5654.22,2250.22L5064.03,4576.73L4671.24,4580.76L5253.37,2252.23Z" style="fill:rgb(62,114,165);"/>
            </g>
            <g transform="matrix(1,0,0,1,1598.25,-2.03642)">
                <path d="M5654.22,2252.38L6021.78,3787.53L5823.65,4579.53L5446.5,3071.85L5654.22,2252.38Z" style="fill:rgb(37,68,99);"/>
            </g>
        </g>
        <g id="E">
            <g transform="matrix(1,0,0,1,-2.22338,3.05714)">
                <path d="M9050.25,2642.73L9375.92,2242.45L10235.3,2242.45L10235.3,2639.76L9052.66,2639.76" style="fill:rgb(62,114,165);"/>
            </g>
            <g transform="matrix(1,0,0,-1,-2.25812,6825.18)">
                <path d="M9050.25,2642.73L9375.92,2242.45L10235.3,2242.45L10235.3,2639.76L9052.66,2639.76" style="fill:rgb(62,114,165);"/>
            </g>
            <path d="M9050.2,2642.79L9050.2,4185.48L9406.1,4185.48L9406.1,3596.63L9927.01,3596.63L9927.01,3197.05L9407.72,3197.05L9407.72,2642.18L9050.2,2642.79Z" style="fill:rgb(37,68,99);"/>
        </g>
        <path id="S1" serif:id="S" d="M10417.3,3812.92L10822,3769.89C10846.3,3918.46 10895.7,4027.58 10970.2,4097.26C11044.7,4166.93 11145.1,4201.77 11271.6,4201.77C11405.6,4201.77 11506.5,4170.77 11574.4,4108.78C11642.3,4046.79 11676.3,3974.3 11676.3,3891.31C11676.3,3838.02 11662,3792.68 11633.4,3755.28C11604.9,3717.89 11555,3685.35 11483.8,3657.69C11435.1,3639.24 11324.1,3606.46 11150.8,3559.32C10927.8,3498.87 10771.4,3424.58 10681.4,3336.47C10555,3212.49 10491.7,3061.35 10491.7,2883.07C10491.7,2768.31 10521.5,2660.98 10581,2561.08C10640.5,2461.17 10726.2,2385.09 10838.1,2332.84C10950.1,2280.58 11085.2,2254.45 11243.5,2254.45C11502,2254.45 11696.7,2316.44 11827.3,2440.42C11958,2564.41 12026.6,2729.88 12033.2,2936.86L11617.3,2956.84C11599.5,2841.06 11561.3,2757.8 11502.7,2707.09C11444.2,2656.37 11356.4,2631.01 11239.3,2631.01C11118.4,2631.01 11023.8,2658.16 10955.4,2712.46C10911.4,2747.3 10889.4,2793.92 10889.4,2852.33C10889.4,2905.61 10910,2951.2 10951.2,2989.12C11003.7,3037.27 11131.1,3087.48 11333.4,3139.74C11535.8,3191.99 11685.4,3246.04 11782.4,3301.89C11879.3,3357.73 11955.2,3434.06 12010,3530.89C12064.8,3627.72 12092.2,3747.34 12092.2,3889.77C12092.2,4018.87 12059.4,4139.78 11993.8,4252.49C11928.3,4365.2 11835.5,4448.96 11715.6,4503.78C11595.7,4558.6 11446.3,4586.01 11267.4,4586.01C11007,4586.01 10807,4520.17 10667.4,4388.51C10527.8,4256.84 10444.4,4064.98 10417.3,3812.92Z" style="fill:rgb(37,68,99);fill-rule:nonzero;"/>
    </g>
</svg>
